<svg xmlns="http://www.w3.org/2000/svg" width="183.352" height="35.564">
    <defs/>
    <path fill="#ffffff" class="a" d="M4.991 26.286h13.944v4.389H0V0h4.991v26.286zM97.013 0h4.9v20.477a8.861 8.861 0 01-.909 3.971 9.986 9.986 0 01-2.5 3.2 12.282 12.282 0 01-3.685 2.154 12.692 12.692 0 01-4.523.795 12.355 12.355 0 01-4.453-.795 12 12 0 01-3.638-2.154 9.843 9.843 0 01-2.449-3.2 9.042 9.042 0 01-.885-3.971V0h4.9v20.477a5.194 5.194 0 00.511 2.279 6.194 6.194 0 001.4 1.882 6.412 6.412 0 002.1 1.274 7.168 7.168 0 002.565.459 7.309 7.309 0 002.612-.459 6.711 6.711 0 002.121-1.274 5.961 5.961 0 001.423-1.882 5.187 5.187 0 00.514-2.279V0zM123.133 0h19.911v4.3h-14.923v10.45h12.731v4.178h-12.731v11.7h-4.991V0zM161.528 0h21.824v4.3h-8.442v26.289h-4.944V4.304h-8.438z"/>
    <path fill="#00aeef" d="M38.138 33.299h20.659v2.265H38.138z"/>
    <path fill="#ffffff" class="a" d="M48.516.079L36.092 30.468h24.816zm-5.9 26.158l5.9-15.127 5.9 15.127z"/>
</svg>
