<svg xmlns="http://www.w3.org/2000/svg" viewBox="0 0 2500 2500"><linearGradient id="a" gradientUnits="userSpaceOnUse" x1="1361.191" y1="952.262" x2="1043.635" y2="2328.339"><stop offset="0" stop-color="#b0dcff"/><stop offset="1" stop-color="#3666ff"/></linearGradient><path d="M1463 2323c-49.6 9.1-1111 134.1-1267.7-368.9-120.3-386.1 189.2-594.7 240-632.6s313-388.3 434.8-705.5 190.6-408.2 344.4-474.5C1403.6 60 2124.6 63.3 2239 1136s-694 1172-776 1187z" fill="url(#a)"/><linearGradient id="b" gradientUnits="userSpaceOnUse" x1="1351.483" y1="955.933" x2="1031.765" y2="2341.375"><stop offset="0" stop-color="#68b1fe"/><stop offset="1" stop-color="#3666ff"/></linearGradient><path d="M1136 2293s-888.1.1-948-491c-46-377 270-492 354-541s380-303 559-574 263.5-342.8 427-377c201-42 807.1 41.5 719.1 1050.2S1136 2293 1136 2293z" fill="url(#b)"/><path fill="#BDCCD4" d="M1062.2 1027.5c-2.5.5-5.1-.1-7.1-1.9-3.3-3-3.6-8.1-.6-11.4l111.1-124.1c3-3.3 8.1-3.6 11.4-.6s3.6 8.1.6 11.4L1066.5 1025c-1.2 1.3-2.7 2.1-4.3 2.5z"/><path fill="#0FF" d="M1592.8 2216.3c-1.9.4-3.9 0-5.5-1.3-2.7-2.3-3.1-6.3-.9-9.1l153.9-185.8c2.3-2.7 6.3-3.1 9.1-.9 2.7 2.3 3.1 6.3.9 9.1l-153.9 185.8c-1 1.1-2.3 1.9-3.6 2.2z"/><path fill="#F3F2EF" d="M686.1 1628.7c9.3 41.7-16.9 83.1-58.7 92.5-41.7 9.3-83.1-16.9-92.5-58.7-9.3-41.7 16.9-83.1 58.7-92.5 41.8-9.3 83.2 17 92.5 58.7z"/><path fill="#F9F8F6" d="M451.6 1829.6c4.4 19.7-8 39.3-27.7 43.7-19.7 4.4-39.3-8-43.7-27.7-4.4-19.7 8-39.3 27.7-43.7s39.3 8 43.7 27.7zM925 2361c3 13.6-5.5 27-19.1 30s-27-5.5-30-19.1 5.5-27 19.1-30.1c13.5-2.9 27 5.6 30 19.2z"/><path fill="#F3F2EF" d="M868.1 2234.4c4.4 19.7-8 39.3-27.7 43.7s-39.3-8-43.7-27.7 8-39.3 27.7-43.7c19.7-4.5 39.3 7.9 43.7 27.7z"/><path d="M448 1455c-112.2 25.1-223.9-45.7-249-157.9-25.1-112.2 45.7-223.9 157.9-249s223.9 45.7 249 157.9c25.1 112.2-45.7 223.9-157.9 249zm-87.9-393c-104.5 23.4-170.5 127.5-147.1 232s127.4 170.5 231.9 147.1 170.5-127.4 147.1-231.9c-23.4-104.6-127.4-170.6-231.9-147.2z" opacity=".8" fill="#f5f5f5"/><path d="M2064.8 2239.5c-39.8 8.9-79.5-16.2-88.4-56s16.2-79.4 56-88.4c39.8-8.9 79.5 16.2 88.4 56 9 39.8-16.2 79.4-56 88.4zm-29.4-131.5c-32.7 7.3-53.3 39.8-46 72.5s39.8 53.3 72.5 46c32.7-7.3 53.3-39.8 46-72.5-7.3-32.7-39.8-53.3-72.5-46z" opacity=".68" fill="#fff"/><path fill="#FFF" d="M153.7 1415c4.6 20.8-8.4 41.4-29.2 46s-41.3-8.4-46-29.2c-4.6-20.8 8.4-41.4 29.2-46 20.8-4.6 41.4 8.4 46 29.2zM949.7 2285.1c-2.1-1.6-2.6-4.6-.9-6.8L1052 2142c1.6-2.1 4.6-2.6 6.8-.9 2.1 1.6 2.6 4.6.9 6.8l-103.2 136.3c-1.6 2.1-4.7 2.5-6.8.9z"/><path fill="#0FF" d="M2123.4 1797.4c-69.1 15.5-112.8 84.3-97.3 153.4 15.5 69.2 84.3 112.8 153.4 97.3 69.1-15.5 112.8-84.3 97.3-153.5-15.4-69-84.2-112.6-153.4-97.2zm46.3 206.7c-44.8 10-89.4-18.3-99.5-63.1-10-44.8 18.3-89.5 63.1-99.5s89.5 18.3 99.5 63.1-18.3 89.5-63.1 99.5z"/><path fill="#E6E6E6" d="M292.5 1628.8c-8.2 1.8-13.4 10-11.6 18.3 1.8 8.2 10 13.4 18.3 11.6 8.2-1.8 13.4-10 11.6-18.3-1.8-8.2-10-13.4-18.3-11.6zm5.6 24.6c-5.3 1.2-10.7-2.2-11.9-7.5-1.2-5.3 2.2-10.7 7.5-11.9 5.3-1.2 10.7 2.2 11.9 7.5 1.2 5.4-2.2 10.7-7.5 11.9zM456.8 1696.5c-13.4 3-21.9 16.4-18.9 29.8s16.4 21.9 29.8 18.9 21.9-16.4 18.9-29.8c-3-13.4-16.4-21.9-29.8-18.9zm9 40.2c-8.7 1.9-17.4-3.6-19.3-12.3-1.9-8.7 3.6-17.4 12.3-19.3 8.7-1.9 17.4 3.6 19.3 12.3 1.9 8.6-3.6 17.3-12.3 19.3z"/><path fill="#E6E6E6" d="M1415.1 1163.7l3.4 1.1L2238.2 181l27.9 22.5 10.8-69.1c.6-1.1.7-2.2.5-3.4l1.2-7.7-75.7 29.2 27.2 22-815.1 978.3-518.8-18.9-3.4-1.1-796.5 825.5c-1.8 2.2 7.2 7.4 8 6.5l792-820.1 518.8 19zM2450.1 1333.3l1.1-6.8-66.4 25.6 23.9 19.2-577.3 693.5-454.8-16.6-3-1-335.6 367.6c-1.6 1.9 6.4 6.5 7 5.7l331.6-362.7 454.8 16.6 3 1 581.2-698.4 24.5 19.7 9.5-60.5c.5-.8.7-1.9.5-2.9z"/><path fill="#0FF" d="M2271.1 744.2l-453.4 550.5c-4 4.8-3.3 11.9 1.5 15.9 2.8 2.3 6.3 3 9.6 2.3 2.4-.5 4.7-1.8 6.3-3.9l453.4-550.5L2323 787l18.5-111-105.5 39.5 35.1 28.7z"/><path fill="#FFF" d="M1069.4 2239c-3.5-2.8-4.1-7.8-1.3-11.3l96-121.5c2.8-3.5 7.8-4.1 11.3-1.3s4.1 7.8 1.3 11.3l-96 121.5c-2.7 3.4-7.8 4-11.3 1.3zM2291 1289.4l-119.1 44.2 43 35.6-831.4 1003.7-442.5-6.7-88.4 79.3c-2.9 3.4-2.6 8.5.8 11.4 2 1.8 4.6 2.3 7.1 1.8 1.6-.4 3.1-1.2 4.3-2.6l82.1-72 442.8 6.8 837.7-1011.3 42.5 35.1 21.1-125.3z"/><path fill="#F7A605" d="M1052.959 1438.074l26.646-32.076 211.915 176.044-26.647 32.076z"/><path fill="#0FF" d="M1689.1 1750.9l-71.7 25.9 25.6 21.6-259.7 330.2-403.9-116.9-3-.9-317.1 365.5c-1.7 2-1.5 5.1.5 6.8 1.2 1 2.8 1.4 4.2 1 1-.2 1.9-.8 2.6-1.6l313.1-360.8 407 117.8 263.8-335 25.3 21.3 13.3-74.9z"/><circle transform="rotate(-45.001 527.194 2008.684)" fill="#F9F8F6" cx="527.2" cy="2008.7" r="309.2"/><path fill="#F9F8F6" d="M399.5 1882.4c22.4 100.2-40.6 199.7-140.9 222.1-100.2 22.4-199.7-40.6-222.1-140.9-22.4-100.2 40.6-199.7 140.9-222.1 100.2-22.4 199.7 40.6 222.1 140.9zM869.1 2161.8c23.7 106-43 211.1-148.9 234.8-106 23.7-211.1-43-234.8-148.9-23.7-106 43-211.1 148.9-234.8 106-23.8 211.1 42.9 234.8 148.9z"/><path fill="#F9F8F6" d="M343.2 2079.3l1083-1192.5-2.5 468-725.6 821.7s-338.4-117.7-354.9-97.2z"/><g fill="#F7BF05"><path d="M1374.3 1392.4L1137 1198.2l384.3-469.8 237.3 194.2z"/><path d="M1734.6 922c-50.5 61.8-141.6 70.9-203.4 20.4s-70.9-141.6-20.4-203.4 141.6-70.9 203.4-20.4 71 141.6 20.4 203.4z"/></g><path fill="#FFE321" d="M1623.3 972.4c26.4-7.7 52.7-18.9 70.9-42.3 38.7-49.7 29.8-121.3-19.8-160-49.7-38.7-121.3-29.8-160 19.8-20.5 26.4-19.9 66.5-22.4 89.4-.2 2-1 5.4-1.3 7.9-4.4 50.4-65.6 125.9-65.6 125.9l34.4 28 1.7 1.3 1.7 1.3 44.9 31.1s58.4-76.4 101.7-96.5c3.8-1.7 8.4-4.3 13.8-5.9z"/><path fill="#FFFFE3" d="M1658.3 888.3c-3.2-9.7-12.2-16.9-24-19.2-19.5-3.9-31.4 13.2-33.1 15.8l-6.9 8.9-14.8-11.6 6.9-8.8c2.4-2.4 16.3-17.7 7.8-35.6-5.2-10.8-14.2-17.7-24.3-18.5-8.5-.7-16.4 3.3-21.6 10.9-5.8 8.4-7.5 17.7-5.1 26.9 3 11.1 11.8 20.5 20.5 26.1l-.3.3.7.6-86.7 111.3 8.6 6.7 86.7-111.3 14.8 11.6-86.8 111.3 8.6 6.7 86.8-111.3.7.6.3-.4c7.6 7.3 19.2 13.8 31.1 14 9.5.1 18.1-3.8 24.8-11.4 6.1-6.8 8-15.4 5.3-23.6zm-101.1-51.9c2.2-3.2 5-5.2 8.2-6 1.1-.3 2.3-.3 3.5-.2 6 .5 11.8 5.2 15.2 12.3 5.7 11.9-5.3 22.9-5.8 23.3-.2.2-.4.4-.5.6l-6.7 8.7c-7.1-4-15.1-11.8-17.4-20.8-1.6-6.1-.4-12.1 3.5-17.9zm87.7 68.3c-4.6 5.2-10.1 7.8-16.4 7.7-9.6-.1-19.4-6.3-25.1-12.4l6.7-8.6c.1-.2.2-.3.3-.5.4-.6 8.7-13.7 21.8-11.1 7.8 1.6 13.9 6.2 15.8 12 1.4 4.4.3 9-3.1 12.9z"/><path fill="#F7A605" d="M1498.6 1087.7c-15 19.2-45.9 20.1-69.1 2.1s-29.8-48.3-14.8-67.5c15-19.2 45.9-20.1 69-2.1 23.2 18.1 29.8 48.3 14.9 67.5z"/><path fill="#F7A605" d="M1412.262 1025.88l49.606-63.655 83.77 65.28-49.606 63.657z"/><path fill="#FFF" d="M1894.3 1084.9s383.5-382.8 544.6-771.7c18.6-8.2-37.2 8.3-37.2 8.3s-254.1 307.9-474.9 505.1c-64.7 57.7-32.5 258.3-32.5 258.3z"/><path fill="#FFF" d="M1739.6 803.3l-457.5 650.8L1646 1522s227.8-297.6 305.8-577.1c12.3-44.2-27.1-135.5-77.4-150.1-87.6-25.5-134.8 8.5-134.8 8.5z"/><path fill="#2E82BA" d="M1877.4 905.4c-32.1 61.1-156.1 261.1-192.5 294.8-2 23.1-1.1 63.6-1.1 63.6l50-18.7s143.7-273.3 153.8-332.4c7.3-43-8.8-10.1-10.2-7.3z"/><path fill="#2E82BA" d="M1887.1 857.4l-16.9 8.8-2.3 75.5s35.5-29 40.9-46.1c12-38.5-21.7-38.2-21.7-38.2z"/><path fill="#424240" d="M1609.6 1531s-103.6 299-389.1 503.7c-129.8 93.1-268.8 146.9-510.3 181-7.4 17-7.7 33.8-12.8 52.8-17.7-18.2-47.5-64.2-47.5-64.2s278.9-75.4 501.2-314c103.6-111.3 221.3-273.3 268.2-414.8 20.5-62 190.3 55.5 190.3 55.5z"/><path fill="#424240" d="M1316.2 1406.2s-381.6 471.6-785.5 898.7c16 19.7 47.6 67.1 47.6 67.1l1.2-60.5s329.3-236.1 537.9-428.9c112-103.5 277.5-289.7 368.8-369.4 46.2-40.1-170-107-170-107z"/><path fill="#F7BF05" d="M1835.8 651.8l9.1 142.3 70.2 26.7 39.5-7.2-1.7-196.7z"/><path fill="#2C2C2D" d="M1821.5 716l-23.2-115.4s164.7-87.6 189.3-87.2c24.5.4-22.1 97.7-34.5 103.6-12.4 5.9-94.7 38.3-94.7 38.3l11.7 33.9-22.5-.4-2.9 51.1-23.2-23.9z"/><path fill="#F7BF05" d="M1771 1436.7l33.5-2.7 12.3 33 37.5 7 3.5 18.2-41.4 23.9zM2453.1 313.1l-22.9 32.7-29.7-22.2 17.9-25.4-13.9-32.2 38-48 43.5 20.6-23.9 44.3z"/><path opacity=".03" fill="#424240" d="M1936.6 981l.3 95.8-39.7 13z"/><path fill="#FFF" d="M1745.8 794.7s-443.7 191.4 29.7 657.3c-4.8 19.7 27.9-19.8 27.9-19.8s-68.5-89.9-91.8-225.3c-17.1-99.2-3.2-222.1 68.4-267.9 73.2-46.7-34.2-144.3-34.2-144.3z"/><path fill="#424240" d="M1364 1341l157.6 106.3 124.2 74.4s-139.4 103.8-170.6 73.7C1443.9 1565.3 1259 1479 1259 1479l105-138z"/><path fill="#F7BF05" d="M1742.7 990.2c69.7-109.9 18.4-199.3 16.2-203l-12.6 7.4c2 3.4 48.8 85.7-15.9 187.8l12.3 7.8z"/><path fill="#F5F5F5" d="M968.6 2186.6c.9 4.2-1.7 8.4-5.9 9.3-4.2.9-8.4-1.7-9.3-5.9-.9-4.2 1.7-8.4 5.9-9.3s8.4 1.7 9.3 5.9z"/><path fill="#FFF" d="M907.2 2301.5c1.4 6.4-2.6 12.8-9 14.2s-12.8-2.6-14.2-9 2.6-12.8 9-14.2c6.4-1.5 12.7 2.5 14.2 9z"/><path fill="#F7A605" d="M1126.49 1208.827l10.995-13.228 208.119 172.967-10.995 13.229zM1177.546 1147.842l10.995-13.228 201.042 167.087-10.994 13.228zM1152.543 1177.842l10.995-13.228L1364.58 1331.7l-10.994 13.228z"/><path fill="#E9E5E1" d="M913.3 1544.5c-2 .4-4.2-.1-5.8-1.6-2.6-2.4-2.8-6.5-.4-9.1l69.2-75c2.4-2.6 6.5-2.8 9.1-.4s2.8 6.5.4 9.1l-69.2 75c-.9 1.1-2 1.7-3.3 2zM868.9 1710.9c-2 .5-4.2.1-5.9-1.3-2.7-2.3-3-6.4-.7-9.1l162.5-188.3c2.3-2.7 6.4-3 9.1-.7s3 6.4.7 9.1L872 1708.9c-.8 1-2 1.7-3.1 2zM1001 1696.8c-2 .6-4.2.2-5.9-1.3-2.7-2.3-3.1-6.4-.8-9.1l160.5-190.1c2.3-2.7 6.4-3.1 9.1-.8 2.7 2.3 3.1 6.4.8 9.1l-160.4 190.1c-1 1-2.1 1.7-3.3 2.1z"/><path fill="red" d="M1049.8 1292.2l76.6-83.3L1334 1381l-143 181 44.9-155.9-66.2 23 16.4-68.2-172.5 115.4 94.1-176.6z"/><g fill="#EDEEF0"><circle transform="rotate(-30.174 942.658 296.128)" cx="942.7" cy="296.1" r="16.1"/><path d="M1038.4 266.3c6.7-3.1 9.6-11.2 6.5-17.9s-11.2-9.6-17.9-6.5c-6.8 3.2-9.7 11.2-6.6 17.9 3.1 6.7 11.2 9.6 18 6.5zM1067.9 212.3c6-2.8 8.6-10 5.8-16s-10-8.6-16-5.8c-6.1 2.9-8.7 10-5.9 16.1 2.8 6 10 8.6 16.1 5.7zM1127.1 221.8c5.4-2.5 7.7-8.9 5.2-14.3s-8.9-7.7-14.3-5.2c-5.5 2.6-7.7 8.9-5.2 14.3s8.8 7.8 14.3 5.2zM1156.6 167.8c4.7-2.2 6.7-7.8 4.5-12.4-1.6-3.4-5.1-5.4-8.6-5.4l-3.9.9c-4.6 2.2-6.7 7.8-4.5 12.4 2.2 4.8 7.8 6.7 12.5 4.5zM1215.8 177.3c4-1.9 5.8-6.7 3.9-10.7-1.9-4.1-6.7-5.8-10.7-3.9-4 1.9-5.8 6.6-3.9 10.7 1.8 4 6.7 5.8 10.7 3.9zM1008.9 554.6c8.8-4.1 12.6-14.4 8.5-23.2s-14.5-12.6-23.3-8.5-12.5 14.5-8.4 23.3 14.4 12.5 23.2 8.4zM1053.3 649.8c-8.8 4.1-12.5 14.4-8.4 23.2s14.4 12.6 23.2 8.5c8.8-4.1 12.6-14.5 8.5-23.3-4.1-8.9-14.5-12.5-23.3-8.4zM920 364.7c8.8-4.1 12.6-14.5 8.5-23.3s-14.5-12.6-23.3-8.5-12.5 14.5-8.4 23.3 14.5 12.6 23.2 8.5zM1038.5 618.1c8.8-4.1 12.6-14.5 8.5-23.3s-14.5-12.5-23.3-8.4-12.5 14.4-8.4 23.2c4.1 8.8 14.5 12.6 23.2 8.5zM964.5 459.7c-8.8 4.1-12.5 14.4-8.4 23.2 4.1 8.8 14.4 12.5 23.2 8.4s12.6-14.4 8.5-23.2c-4.2-8.8-14.6-12.5-23.3-8.4zM934.9 396.4c-8.8 4.1-12.5 14.4-8.4 23.2 4.1 8.8 14.4 12.6 23.2 8.5s12.6-14.5 8.5-23.3c-4.2-8.8-14.6-12.5-23.3-8.4z"/><circle transform="rotate(-75.013 972.371 359.359)" cx="972.4" cy="359.4" r="16.1"/><path d="M1068.1 564.1c8.1-3.8 11.6-13.4 7.8-21.5s-13.4-11.6-21.5-7.8-11.6 13.4-7.8 21.5 13.4 11.6 21.5 7.8z"/><circle transform="rotate(-70.063 1001.92 422.654)" cx="1002" cy="422.7" r="16.1"/><path d="M1038.4 500.8c8.1-3.8 11.6-13.4 7.8-21.5s-13.4-11.6-21.5-7.8-11.6 13.4-7.8 21.5c3.9 8.1 13.4 11.6 21.5 7.8z"/><circle cx="1090.8" cy="613" r="16.1"/><path d="M1068 446.9c7.4-3.5 10.6-12.3 7.2-19.7-3.5-7.4-12.3-10.5-19.7-7.1-7.4 3.5-10.6 12.2-7.1 19.6 3.4 7.4 12.2 10.7 19.6 7.2zM1097.6 510.2c7.4-3.5 10.7-12.2 7.2-19.6s-12.3-10.5-19.7-7.1c-7.4 3.5-10.6 12.2-7.1 19.6 3.4 7.4 12.2 10.6 19.6 7.1zM1038.4 383.6c7.4-3.5 10.6-12.3 7.2-19.7-3.5-7.4-12.3-10.6-19.7-7.2-7.4 3.5-10.5 12.3-7.1 19.7 3.4 7.4 12.2 10.7 19.6 7.2zM1114.7 546.8c-7.4 3.5-10.6 12.2-7.1 19.6 3.5 7.4 12.2 10.6 19.6 7.1s10.7-12.2 7.2-19.6c-3.5-7.4-12.3-10.5-19.7-7.1zM1008.8 320.2c7.4-3.5 10.6-12.3 7.2-19.7-3.5-7.4-12.3-10.6-19.7-7.2-7.4 3.5-10.5 12.3-7.1 19.7 3.4 7.4 12.2 10.7 19.6 7.2zM1145.5 495.3c-6.8 3.2-9.6 11.2-6.5 17.9s11.1 9.7 17.9 6.5c6.6-3.1 9.6-11.2 6.5-17.9-3.2-6.8-11.3-9.6-17.9-6.5zM1097.6 392.9c6.6-3.1 9.6-11.2 6.5-17.9-3.1-6.7-11.2-9.6-17.9-6.5-6.8 3.2-9.6 11.2-6.5 17.9 3.2 6.8 11.1 9.7 17.9 6.5zM1127.2 456.3c6.6-3.1 9.6-11.2 6.5-17.9-3.1-6.7-11.2-9.6-17.9-6.5-6.8 3.2-9.6 11.2-6.5 17.9s11.1 9.7 17.9 6.5zM1068 329.6c6.6-3.1 9.6-11.2 6.5-17.9s-11.2-9.6-17.9-6.5c-6.8 3.2-9.6 11.2-6.5 17.9 3.2 6.7 11.1 9.7 17.9 6.5zM1176.1 443.8c-6 2.8-8.7 10.1-5.9 16.2 2.8 6 10.1 8.7 16.2 5.9 6-2.8 8.6-10.1 5.8-16.1-2.8-6.2-10-8.9-16.1-6zM1127.2 339.1c6-2.8 8.6-10.1 5.8-16.1-2.8-6-10-8.7-16.1-5.9-6 2.8-8.7 10.1-5.9 16.2 2.9 6 10.2 8.6 16.2 5.8zM1201.3 511c1.5-1.3 3-2.6 4.6-3.9-2 .9-3.5 2.3-4.6 3.9zM1097.5 275.6c6-2.8 8.6-10 5.8-16s-10-8.7-16.1-5.9c-6 2.8-8.7 10.1-5.9 16.2 2.9 6 10.2 8.6 16.2 5.7zM1156.8 402.4c6-2.8 8.6-10.1 5.8-16.1-2.8-6-10-8.7-16.1-5.9-6 2.8-8.7 10.1-5.9 16.2 2.9 6 10.2 8.7 16.2 5.8zM1156.7 285.1c5.4-2.5 7.7-8.9 5.2-14.3s-8.9-7.7-14.3-5.2c-5.5 2.6-7.7 8.9-5.2 14.3s8.9 7.8 14.3 5.2zM1186.3 348.5c5.4-2.5 7.7-8.9 5.2-14.3s-8.9-7.7-14.3-5.2c-5.5 2.6-7.7 8.9-5.2 14.3s8.9 7.7 14.3 5.2zM1236.5 455.7c-5.5 2.6-7.7 8.9-5.2 14.3 1.8 3.9 5.7 6.2 9.8 6.2 3.6-3.4 7.1-6.8 10.6-10.3.1-1.7-.1-3.4-.9-5-2.5-5.4-9-7.7-14.3-5.2zM1206.8 392.3c-5.5 2.6-7.7 8.9-5.2 14.3s8.8 7.7 14.3 5.2c5.4-2.5 7.7-8.9 5.2-14.3-2.5-5.3-8.9-7.7-14.3-5.2zM1267.2 404.3c-4.7 2.2-6.8 7.8-4.6 12.5s7.9 6.7 12.5 4.5c4.7-2.2 6.7-7.8 4.5-12.4-2.2-4.8-7.7-6.8-12.4-4.6zM1215.9 294.5c4.7-2.2 6.7-7.8 4.5-12.4-2.2-4.7-7.8-6.7-12.4-4.5-4.7 2.2-6.8 7.8-4.6 12.5 2.1 4.7 7.8 6.6 12.5 4.4zM1245.5 357.9c4.7-2.2 6.7-7.8 4.5-12.4-2.2-4.7-7.8-6.7-12.4-4.5-4.7 2.2-6.8 7.8-4.6 12.5 2.1 4.6 7.8 6.6 12.5 4.4zM1186.2 231.2c4.7-2.2 6.7-7.8 4.5-12.4-2.2-4.7-7.8-6.7-12.4-4.5-4.7 2.2-6.8 7.8-4.6 12.5 2.2 4.6 7.9 6.6 12.5 4.4zM1308.6 356.7c-1.9-4.1-6.7-5.8-10.7-3.9s-5.8 6.6-3.9 10.7c1.9 4 6.7 5.8 10.7 3.9 4-1.9 5.7-6.7 3.9-10.7zM1275.1 304c4-1.9 5.8-6.7 3.9-10.7-1.9-4.1-6.7-5.8-10.7-3.9s-5.8 6.6-3.9 10.7c1.8 4 6.7 5.8 10.7 3.9zM1245.4 240.7c4-1.9 5.8-6.7 3.9-10.7s-6.7-5.8-10.7-3.9c-4 1.9-5.8 6.7-3.9 10.7 1.9 4 6.7 5.8 10.7 3.9zM1275 186.8c3.4-1.6 4.9-5.6 3.3-9s-5.6-4.9-9-3.3c-3.3 1.6-4.8 5.6-3.2 9 1.6 3.4 5.6 4.9 8.9 3.3zM1304.6 250.2c3.4-1.6 4.9-5.6 3.3-9s-5.6-4.9-9-3.3c-3.3 1.6-4.8 5.6-3.2 9 1.6 3.4 5.6 4.8 8.9 3.3zM890.5 418.6c9.5-4.4 13.5-15.6 9.1-25-4.4-9.5-15.6-13.5-25-9.1-9.5 4.4-13.5 15.6-9.1 25s15.5 13.5 25 9.1zM904.1 447.8c-9.5 4.4-13.5 15.6-9.1 25 4.4 9.5 15.6 13.5 25 9.1 9.5-4.4 13.5-15.6 9.1-25-4.3-9.5-15.5-13.5-25-9.1zM949.7 545.2c9.5-4.4 13.5-15.6 9.1-25-4.4-9.5-15.6-13.5-25-9.1-9.5 4.4-13.5 15.6-9.1 25 4.4 9.5 15.6 13.6 25 9.1zM1009 671.9c9.5-4.4 13.5-15.6 9.1-25-4.4-9.5-15.6-13.5-25-9.1-9.5 4.4-13.5 15.6-9.1 25 4.4 9.5 15.5 13.6 25 9.1zM979.3 608.6c9.5-4.4 13.5-15.6 9.1-25-4.4-9.5-15.6-13.5-25-9.1-9.5 4.4-13.5 15.6-9.1 25 4.4 9.5 15.6 13.5 25 9.1zM1022.6 701.2c-9.5 4.4-13.5 15.6-9.1 25 4.4 9.5 15.6 13.5 25 9.1 9.5-4.4 13.5-15.6 9.1-25-4.4-9.5-15.5-13.5-25-9.1zM874.6 501.7c-8.8 4.1-12.6 14.4-8.5 23.2s14.5 12.5 23.3 8.4 12.5-14.4 8.4-23.2c-4.1-8.7-14.4-12.5-23.2-8.4zM993.1 755c-8.8 4.1-12.6 14.5-8.5 23.3s14.5 12.5 23.3 8.4 12.5-14.4 8.4-23.2c-4.1-8.7-14.5-12.6-23.2-8.5zM978.3 723.5c8.8-4.1 12.5-14.5 8.4-23.3s-14.4-12.5-23.2-8.4-12.6 14.4-8.5 23.2 14.5 12.6 23.3 8.5zM948.7 660.1c8.8-4.1 12.5-14.5 8.4-23.3s-14.4-12.5-23.2-8.4-12.6 14.4-8.5 23.2c4.1 8.8 14.5 12.6 23.3 8.5zM859.8 470.1c8.8-4.1 12.5-14.5 8.4-23.3s-14.4-12.5-23.2-8.4-12.6 14.4-8.5 23.2c4.1 8.8 14.5 12.6 23.3 8.5zM904.2 565c-8.8 4.1-12.6 14.5-8.5 23.3s14.5 12.5 23.3 8.4 12.5-14.4 8.4-23.2c-4.1-8.8-14.4-12.6-23.2-8.5zM955.4 753.4c-3.8-8.1-13.5-11.5-21.5-7.8-8.1 3.8-11.6 13.4-7.8 21.5s13.4 11.6 21.5 7.8c8-3.8 11.6-13.4 7.8-21.5zM918 711.5c8-3.7 11.6-13.4 7.8-21.5s-13.5-11.5-21.5-7.8c-8.1 3.8-11.6 13.4-7.8 21.5s13.4 11.6 21.5 7.8zM963.5 809c-8.1 3.8-11.6 13.4-7.8 21.5s13.4 11.6 21.5 7.8c8-3.7 11.6-13.4 7.8-21.5s-13.5-11.6-21.5-7.8zM829.1 521.5c8-3.7 11.6-13.4 7.8-21.5s-13.5-11.5-21.5-7.8c-8.1 3.8-11.6 13.4-7.8 21.5s13.4 11.6 21.5 7.8zM888.3 648.2c8-3.7 11.6-13.4 7.8-21.5s-13.5-11.5-21.5-7.8c-8.1 3.8-11.6 13.4-7.8 21.5 3.9 8.1 13.5 11.6 21.5 7.8zM845.1 555.6c-8.1 3.8-11.6 13.4-7.8 21.5s13.4 11.6 21.5 7.8c8-3.7 11.6-13.4 7.8-21.5-3.9-8.1-13.6-11.5-21.5-7.8zM874.7 736.1c-7.4 3.5-10.6 12.3-7.2 19.7 3.5 7.4 12.3 10.5 19.7 7.1 7.4-3.5 10.6-12.2 7.1-19.6-3.4-7.4-12.2-10.6-19.6-7.2zM785.9 546.2c-7.4 3.5-10.7 12.2-7.2 19.6 3.5 7.4 12.3 10.6 19.7 7.2 7.4-3.5 10.5-12.3 7.1-19.7-3.5-7.4-12.2-10.6-19.6-7.1zM904.3 799.5c-7.4 3.5-10.6 12.3-7.2 19.7 3.5 7.4 12.3 10.6 19.7 7.2 7.4-3.5 10.5-12.3 7.1-19.7-3.4-7.4-12.1-10.7-19.6-7.2zM845.2 672.9c-7.4 3.5-10.7 12.2-7.2 19.6 3.5 7.4 12.3 10.5 19.7 7.1 7.4-3.5 10.6-12.2 7.1-19.6-3.5-7.4-12.2-10.6-19.6-7.1zM815.5 609.5c-7.4 3.5-10.7 12.2-7.2 19.6 3.5 7.4 12.3 10.5 19.7 7.1 7.4-3.5 10.6-12.2 7.1-19.6-3.4-7.4-12.2-10.5-19.6-7.1zM815.5 726.8c-6.7 3.1-9.6 11.2-6.5 17.9s11.2 9.6 17.9 6.5c6.8-3.2 9.6-11.2 6.5-17.9s-11.1-9.7-17.9-6.5zM756.2 600.1c-6.7 3.1-9.6 11.2-6.5 17.9s11.2 9.6 17.9 6.5c6.8-3.2 9.6-11.2 6.5-17.9-3.1-6.7-11-9.7-17.9-6.5zM785.9 663.4c-6.7 3.1-9.6 11.2-6.5 17.9s11.2 9.6 17.9 6.5c6.8-3.2 9.6-11.2 6.5-17.9-3.2-6.7-11.1-9.7-17.9-6.5zM845.1 790.1c-6.7 3.1-9.6 11.2-6.5 17.9s11.2 9.6 17.9 6.5c6.8-3.2 9.6-11.2 6.5-17.9s-11.1-9.7-17.9-6.5zM756.3 717.3c-6 2.8-8.6 10.1-5.8 16.1s10 8.7 16.1 5.9c6-2.8 8.7-10.1 5.9-16.2-2.9-6-10.2-8.6-16.2-5.8zM785.9 780.6c-6 2.8-8.6 10.1-5.8 16.1s10 8.7 16.1 5.9c6-2.8 8.7-10.1 5.9-16.2-2.8-5.9-10.1-8.6-16.2-5.8z"/></g><path fill="#0FF" d="M1850.3 97.5l-145.5 51.8 49.3 42-839.6 986.2-2.3 2.7-34.6 197.8-688.3 757-3.5 3.9-.9 97.8-62 73.5c-4.8 5.3-4.4 13.4.9 18.2 3.2 2.9 7.5 3.9 11.5 3 2.5-.6 4.9-1.9 6.7-3.9l69.1-81.3.9-97.8 689.8-758.7 34.7-198.2L1773.8 208l48.6 41.4 27.9-151.9z"/><path fill="#FFF" d="M1101.7 781.9c-47.5 10.6-94.8-19.4-105.4-66.9-10.6-47.5 19.4-94.8 66.9-105.4 47.5-10.6 94.8 19.4 105.4 66.9s-19.4 94.8-66.9 105.4zm-32.9-147.3c-33.7 7.5-55 41.1-47.5 74.9 7.5 33.7 41.1 55 74.9 47.5 33.7-7.5 55-41.1 47.5-74.9-7.6-33.8-41.2-55.1-74.9-47.5zM691.5 1064.9c-68.7 15.4-137-28-152.4-96.7s28-137 96.7-152.4c68.7-15.4 137 28 152.4 96.7 15.3 68.7-28 137-96.7 152.4zm-45.9-205.3c-44.5 10-72.6 54.3-62.7 98.8 10 44.5 54.3 72.6 98.8 62.7 44.5-10 72.6-54.3 62.7-98.8-10-44.5-54.3-72.6-98.8-62.7z"/><path fill="#E6E6E6" d="M2397.2 833.5l45 37.2 22.4-132.7-126.1 46.9 45.6 37.7-1011.6 1223.6-561.5 20.9-283.7 321.2c-3 3.7 12.6 11.2 11.8 12L818.5 2085l561.4-20.9L2397.2 833.5z"/></svg>